# xmcd CD database file
#
# Track frame offsets:
#	150
#	17703
#	37123
#	56676
#	67617
#	86786
#	102456
#	119490
#	137251
#	157128
#	176742
#
# Disc length: 2590 seconds
#
# Revision: 1
# Processed by: cddbd v1.5.1PL0 Copyright (c) Steve Scherf et al.
# Submitted via: CDex 1.50beta10
#
DISCID=950a1c0b
DTITLE=Kari Bremnes - you'd have be here
DYEAR=2004
DGENRE=Jazz
TTITLE0=Kari Bremnes - A fantastic time already
TTITLE1=Kari Bremnes - Can it really be years
TTITLE2=Kari Bremnes - Full control
TTITLE3=Kari Bremnes - I see you
TTITLE4=Kari Bremnes - I would like to go
TTITLE5=Kari Bremnes - Look homeward, angel
TTITLE6=Kari Bremnes - Protection
TTITLE7=Kari Bremnes - Waltz
TTITLE8=Kari Bremnes - Who knows where the time goes
TTITLE9=Kari Bremnes - You'd have to be here
TTITLE10=Kari Bremnes - Zarepta
EXTD=YEAR: 2004
EXTT0=
EXTT1=
EXTT2=
EXTT3=
EXTT4=
EXTT5=
EXTT6=
EXTT7=
EXTT8=
EXTT9=
EXTT10=
PLAYORDER=
